<svg xmlns="http://www.w3.org/2000/svg" width="800" height="800" baseProfile="full" version="1.1">
    
    <!-- <path d="M10 10 H 90 V 90 H 10 Z" fill="transparent" stroke="black"/>
    <circle cx="10" cy="10" r="2" fill="red"/>
    <circle cx="90" cy="90" r="2" fill="red"/>
    <circle cx="90" cy="10" r="2" fill="red"/>
    <circle cx="10" cy="90" r="2" fill="red"/> -->


    <!-- <path d="M10 10 C 20 20, 40 20, 50 10" stroke="black" fill="transparent"/>
    <path d="M70 10 C 70 20, 120 20, 120 10" stroke="black" fill="transparent"/>
    <path d="M130 10 C 120 20, 180 20, 170 10" stroke="black" fill="transparent"/>
    <path d="M10 60 C 20 80, 40 80, 50 60" stroke="black" fill="transparent"/>
    <path d="M70 60 C 70 80, 110 80, 110 60" stroke="black" fill="transparent"/>
    <path d="M130 60 C 120 80, 180 80, 170 60" stroke="black" fill="transparent"/>
    <path d="M10 110 C 20 140, 40 140, 50 110" stroke="black" fill="transparent"/>
    <path d="M70 110 C 70 140, 110 140, 110 110" stroke="black" fill="transparent"/>
    <path d="M130 110 C 120 140, 180 140, 170 110" stroke="black" fill="transparent"/> -->


    <!-- <path d="M10 80 C 40 10, 65 10, 95 80 S 150 150, 180 80" 
        stroke="black" fill="transparent"/>

    <path d="M10 80 Q 95 10 180 80" stroke="black" fill="transparent"/> -->

    <!-- <path d="M10 80 Q 52.5 10, 95 80 T 180 80" stroke="black" fill="transparent"/> -->


    <!-- <path d="M10 315
           L 110 215
           A 30 50 0 0 1 162.55 162.45
           L 172.55 152.45
           A 30 50 -45 0 1 215.1 109.9
           L 315 10" 
           stroke="black" fill="green" stroke-width="2" fill-opacity="0.5"/> -->


    <!-- <path d="M80 80
           A 45 45, 0, 0, 0, 125 125
           L 125 80 Z" fill="green"/>
    <path d="M230 80
            A 45 45, 0, 1, 0, 275 125
            L 275 80 Z" fill="red"/>
    <path d="M80 230
            A 45 45, 0, 0, 1, 125 275
            L 125 230 Z" fill="purple"/>
    <path d="M230 230
            A 45 45, 0, 1, 1, 275 275
            L 275 230 Z" fill="blue"/> -->

    
    <!-- <rect x="10" y="10" width="100" height="100" stroke="blue" fill="purple"
       fill-opacity="0.5" stroke-opacity="0.8"/>

    <line x1="40" x2="120" y1="20" y2="20" stroke="black" stroke-width="20" stroke-linecap="butt"/>
    <line x1="40" x2="120" y1="60" y2="60" stroke="black" stroke-width="20" stroke-linecap="square"/>
    <line x1="40" x2="120" y1="100" y2="100" stroke="black" stroke-width="20" stroke-linecap="round"/> -->

    <!-- <polyline points="40 60 80 20 120 60" stroke="black" stroke-width="20"
        stroke-linecap="butt" fill="none" stroke-linejoin="miter"/>
    
    <polyline points="40 140 80 100 120 140" stroke="black" stroke-width="20"
        stroke-linecap="round" fill="none" stroke-linejoin="round"/>
    
    <polyline points="40 220 80 180 120 220" stroke="black" stroke-width="20"
      stroke-linecap="square" fill="none" stroke-linejoin="bevel"/> -->

    <!-- <path d="M 10 75 Q 50 10 100 75 T 190 75" stroke="black"
        stroke-linecap="round" stroke-dasharray="5,10,5" fill="none"/>
    <path d="M 10 75 L 190 75" stroke="red"
        stroke-linecap="round" stroke-width="1" stroke-dasharray="5,5" fill="none"/> -->

    <!-- <defs>
        <style type="text/css"><![CDATA[
        #MyRect {
            stroke: black;
            fill: red;
        }
        ]]></style>
    </defs>
    <rect x="10" height="180" y="10" width="180" id="MyRect"/> -->


    <!-- <path id="my_path" d="M 20,20 C 40,40 80,40 100,20" />
    <text>
    <textPath xlink:href="#my_path">This text follows a curve.</textPath>
    </text> -->
<!-- 
    <rect x="0" y="0" width="200" height="200" fill="blue" />
    <circle cx="100" cy="100" r="50" stroke="yellow" stroke-width="40" stroke-opacity=".5" fill="red" /> -->

    <image x="90" y="-65" width="128" height="146" transform="rotate(45)"
        xlink:href="https://developer.mozilla.org/media/img/mdn-logo.png"/>
</svg>
